<!DOCTYPE svg PUBLIC "-//W3C//DTD SVG 1.1//EN" "http://www.w3.org/Graphics/SVG/1.1/DTD/svg11.dtd">
<!-- Uploaded to: SVG Repo, www.svgrepo.com, Transformed by: SVG Repo Mixer Tools -->
<svg height="800px" width="800px" version="1.1" id="Layer_1" xmlns="http://www.w3.org/2000/svg" xmlns:xlink="http://www.w3.org/1999/xlink" viewBox="0 0 512.00 512.00" xml:space="preserve" fill="#000000" stroke="#000000" stroke-width="7.68" transform="rotate(0)">
<g id="SVGRepo_bgCarrier" stroke-width="0"/>
<g id="SVGRepo_tracerCarrier" stroke-linecap="round" stroke-linejoin="round" stroke="#CCCCCC" stroke-width="94.208"> <path style="fill:#A2001D;" d="M512,256.09l-14.256-36.309c-39.368,12.432-58.672-6.781-89.411-41.803 c-22.184-25.275-47.326-53.922-86.787-61.398c-32.011-6.067-52.959,4.547-65.548,15.808c-12.585-11.259-33.529-21.878-65.547-15.808 c-39.462,7.476-64.604,36.124-86.788,61.398c-30.739,35.023-50.042,54.235-89.411,41.803L0,256.09 c1.344,0.637,18.034,8.434,44.488,16.073c4.876,9.745,19.221,35.45,46.029,60.982c30.676,29.215,84.289,64.043,165.483,64.043 s134.807-34.827,165.483-64.043c26.808-25.532,41.154-51.238,46.029-60.983C493.966,264.524,510.656,256.727,512,256.09z"/> <path style="fill:#6C0014;" d="M512,256.09l-14.256-36.309c-39.368,12.432-58.672-6.781-89.411-41.803 c-22.184-25.275-47.326-53.922-86.787-61.398c-32.011-6.067-52.959,4.547-65.548,15.808v264.8 c81.194,0,134.807-34.827,165.483-64.043c26.808-25.532,41.154-51.238,46.029-60.983C493.966,264.524,510.656,256.727,512,256.09z"/> <path d="M364.339,267.314c-77.385,0-61.908-14.662-108.339-14.662s-30.954,14.662-108.339,14.662 c-6.302,0,59.972,19.091,108.339,19.091C304.365,286.405,370.639,267.314,364.339,267.314z"/> </g>
<g id="SVGRepo_iconCarrier"> <path style="fill:#A2001D;" d="M512,256.09l-14.256-36.309c-39.368,12.432-58.672-6.781-89.411-41.803 c-22.184-25.275-47.326-53.922-86.787-61.398c-32.011-6.067-52.959,4.547-65.548,15.808c-12.585-11.259-33.529-21.878-65.547-15.808 c-39.462,7.476-64.604,36.124-86.788,61.398c-30.739,35.023-50.042,54.235-89.411,41.803L0,256.09 c1.344,0.637,18.034,8.434,44.488,16.073c4.876,9.745,19.221,35.45,46.029,60.982c30.676,29.215,84.289,64.043,165.483,64.043 s134.807-34.827,165.483-64.043c26.808-25.532,41.154-51.238,46.029-60.983C493.966,264.524,510.656,256.727,512,256.09z"/> <path style="fill:#6C0014;" d="M512,256.09l-14.256-36.309c-39.368,12.432-58.672-6.781-89.411-41.803 c-22.184-25.275-47.326-53.922-86.787-61.398c-32.011-6.067-52.959,4.547-65.548,15.808v264.8 c81.194,0,134.807-34.827,165.483-64.043c26.808-25.532,41.154-51.238,46.029-60.983C493.966,264.524,510.656,256.727,512,256.09z"/> <path d="M364.339,267.314c-77.385,0-61.908-14.662-108.339-14.662s-30.954,14.662-108.339,14.662 c-6.302,0,59.972,19.091,108.339,19.091C304.365,286.405,370.639,267.314,364.339,267.314z"/> </g>
</svg>